<svg version="1.1" id="Capa_1" xmlns="http://www.w3.org/2000/svg" xmlns:xlink="http://www.w3.org/1999/xlink" x="0px" y="0px"
	 viewBox="0 0 740.4 229.9" style="enable-background:new 0 0 740.4 229.9;" xml:space="preserve">
<style type="text/css">
	.st0{fill:#FFFFFF;}
</style>
<g id="logotipo-full-oficial">
	<g id="TAGLINE_1_">
		<path class="st0" d="M159.2,208v6.1h-13.2V209c-3.4,3.8-7.6,5.7-12.6,5.7c-4.6,0-8.6-1.6-12.1-4.7c-3.5-3.1-5.2-7.6-5.2-13.3
			c0-5.8,1.8-10.4,5.3-13.7c3.6-3.3,7.6-5,12.1-5c4.8,0,8.9,1.9,12.4,5.7v-13.9h-6.8v-6.1h13.7V208H159.2z M123.4,196.5
			c0,3.9,1.1,6.9,3.3,8.9c2.2,2.1,4.8,3.1,7.9,3.1c3,0,5.6-1.1,7.9-3.3c2.3-2.2,3.4-5.2,3.4-9.1c0-3.9-1.2-6.8-3.5-8.8
			c-2.3-2-5-3-7.9-3c-3.1,0-5.8,1.2-7.9,3.5C124.5,190.2,123.4,193.1,123.4,196.5z"/>
		<path class="st0" d="M212.9,198.3h-29.6c0.4,3.2,1.7,5.9,3.9,7.9c2.1,2,4.9,3,8.2,3c4.8,0,8.6-1.9,11.5-5.8l6.1,2.7
			c-2,3.1-4.6,5.4-7.7,6.9c-3.2,1.5-6.5,2.2-10,2.2c-5.4,0-10-1.7-13.8-5c-3.8-3.4-5.7-7.9-5.7-13.6c0-5.4,1.9-9.9,5.6-13.3
			c3.7-3.5,8-5.2,12.8-5.2c4.7,0,9,1.7,12.9,5.1C210.8,186.5,212.8,191.6,212.9,198.3z M205.8,193.3c-0.5-2.5-1.8-4.7-3.9-6.7
			c-2.1-2-4.6-3-7.7-3c-2.8,0-5.1,0.9-7.1,2.7c-2,1.8-3.2,4.1-3.6,7H205.8z"/>
		<path class="st0" d="M246.6,214.7l-11.5-29.6h-6.2V179h17.7v6.1H242l7.6,20l7.6-20h-4.9V179h17.2v6.1h-5.4l-11.2,29.6H246.6z"/>
		<path class="st0" d="M322.9,198.3h-29.6c0.4,3.2,1.7,5.9,3.9,7.9c2.1,2,4.9,3,8.2,3c4.8,0,8.6-1.9,11.5-5.8l6.1,2.7
			c-2,3.1-4.6,5.4-7.7,6.9c-3.2,1.5-6.5,2.2-10,2.2c-5.4,0-10-1.7-13.8-5c-3.8-3.4-5.7-7.9-5.7-13.6c0-5.4,1.9-9.9,5.6-13.3
			c3.7-3.5,8-5.2,12.8-5.2c4.7,0,9,1.7,12.9,5.1C320.7,186.5,322.7,191.6,322.9,198.3z M315.7,193.3c-0.5-2.5-1.8-4.7-3.9-6.7
			c-2.1-2-4.6-3-7.7-3c-2.8,0-5.1,0.9-7.1,2.7c-2,1.8-3.2,4.1-3.6,7H315.7z"/>
		<path class="st0" d="M347.5,208v-38.3h-6.3v-6.1h13.2V208h5.4v6.1h-18.5V208H347.5z"/>
		<path class="st0" d="M377.1,196.6c0-5.4,1.8-9.9,5.4-13.4c3.6-3.5,8-5.2,13.1-5.2c5.1,0,9.4,1.7,13.1,5.1
			c3.6,3.4,5.5,7.9,5.5,13.4c0,5.5-1.8,10-5.4,13.5c-3.6,3.4-8,5.2-13.1,5.2c-5.2,0-9.6-1.7-13.2-5.2
			C378.9,206.4,377.1,202,377.1,196.6z M384.4,196.5c0,3.5,1.1,6.3,3.3,8.5c2.2,2.2,4.8,3.3,7.9,3.3c3.2,0,5.8-1.1,8-3.4
			c2.1-2.2,3.2-5.1,3.2-8.5c0-3.4-1.1-6.3-3.3-8.5c-2.2-2.2-4.8-3.3-7.9-3.3c-3.2,0-5.9,1.1-8,3.4
			C385.5,190.4,384.4,193.2,384.4,196.5z"/>
		<path class="st0" d="M437.5,223.8v-38.7h-5.9V179h12.8v5.5c3.4-4,7.6-6.1,12.5-6.1c4.9,0,9,1.7,12.3,5.1c3.2,3.4,4.9,7.8,4.9,13.2
			c0,5.7-1.8,10.2-5.3,13.5c-3.5,3.3-7.5,4.9-12,4.9c-4.7,0-8.8-1.8-12.4-5.4v14h6.8v6.1h-20.2v-6.1H437.5z M444.3,197.1
			c0,1.9,0.4,3.8,1.2,5.6c0.8,1.8,2.1,3.3,3.8,4.5c1.7,1.2,3.8,1.8,6.1,1.8c3.3,0,6-1.1,8.2-3.3c2.1-2.2,3.2-5.2,3.2-9.1
			c0-3.8-1.1-6.7-3.4-8.8c-2.2-2.1-4.8-3.2-7.7-3.2c-3.1,0-5.7,1.1-8.1,3.4C445.5,190.2,444.3,193.3,444.3,197.1z"/>
		<path class="st0" d="M530.1,198.3h-29.6c0.4,3.2,1.7,5.9,3.9,7.9c2.1,2,4.9,3,8.2,3c4.8,0,8.6-1.9,11.5-5.8l6.1,2.7
			c-2,3.1-4.6,5.4-7.7,6.9c-3.2,1.5-6.5,2.2-10,2.2c-5.4,0-10-1.7-13.8-5c-3.8-3.4-5.7-7.9-5.7-13.6c0-5.4,1.9-9.9,5.6-13.3
			c3.7-3.5,8-5.2,12.8-5.2c4.7,0,9,1.7,12.9,5.1C527.9,186.5,529.9,191.6,530.1,198.3z M523,193.3c-0.5-2.5-1.8-4.7-3.9-6.7
			c-2.1-2-4.6-3-7.7-3c-2.8,0-5.1,0.9-7.1,2.7c-2,1.8-3.2,4.1-3.6,7H523z"/>
		<path class="st0" d="M555.7,208v-22.9h-7.1V179h12.6v7.9c0.8-2.1,1.9-3.8,3.2-5.1c1.4-1.4,2.8-2.3,4.4-2.7
			c1.5-0.4,3.6-0.7,6.3-0.7h1.8v7h-1.4c-3.5,0-6.1,0.4-7.9,1.1c-1.7,0.7-3,2-3.9,3.8c-0.8,1.9-1.3,5.2-1.3,10v7.7h7.7v6.1h-21.7V208
			H555.7z"/>
		<path class="st0" d="M595.4,214.2v-12.1h6.2v1.2c0.2,1.6,1.1,3,2.7,4.1c1.6,1.1,3.4,1.6,5.5,1.6c2.2,0,4-0.4,5.3-1.2
			c1.3-0.8,2-1.9,2-3.2c0-1.3-0.6-2.3-1.7-2.9c-1.1-0.6-3.3-1.2-6.6-1.7c-4.8-0.8-8.3-2.1-10.4-4c-2.1-1.8-3.1-4.2-3.1-7.1
			c0-2.9,1.1-5.4,3.4-7.4s5.2-3,8.9-3c3.3,0,6.2,0.7,8.6,2.1V179h6.1v11.7h-6.1v-2.1c-1.9-2.9-4.6-4.3-8.1-4.3
			c-1.8,0-3.3,0.4-4.5,1.2c-1.2,0.8-1.8,1.8-1.8,3.1c0,1.3,0.5,2.2,1.6,2.7c1.1,0.5,3.4,1,7,1.6c3.4,0.5,6,1.2,7.7,1.9
			c1.7,0.7,3.2,1.9,4.3,3.6c1.2,1.7,1.7,3.6,1.7,5.8c0,3.3-1.3,5.9-3.8,7.8c-2.5,1.9-5.8,2.9-9.8,2.9c-3.8,0-6.8-0.9-9.2-2.6v2
			H595.4z"/>
	</g>
	<g id="TM_1_">
		<path id="M_1_" class="st0" d="M724.5,16.6V0h3.3l3.9,11.8c0.4,1.1,0.6,1.9,0.8,2.5c0.2-0.6,0.5-1.5,0.9-2.7l4-11.5h3v16.6h-2.1
			V2.7l-4.8,13.9h-2l-4.8-14.1v14.1H724.5z"/>
		<path id="T_1_" class="st0" d="M714.8,16.6V2h-5.5V0h13.2v2H717v14.6H714.8z"/>
	</g>
	<g id="LOGOTIPO_1_">
		<polygon id="H_1_" class="st0" points="664.6,14.8 664.6,57.7 641.4,57.7 641.4,14.8 604,14.8 604,133.8 641.4,133.8 641.4,90.9 
			664.6,90.9 664.6,133.8 702,133.8 702,14.8 		"/>
		<path id="O_1_" class="st0" d="M527.8,10.6c-36.5,0-66.1,28.5-66.1,63.7c0,35.2,29.6,63.7,66.1,63.7c36.5,0,66.1-28.5,66.1-63.7
			C593.9,39.1,564.3,10.6,527.8,10.6z M552.3,74.3c0,14-11,25.4-24.5,25.4c-13.5,0-24.5-11.4-24.5-25.4c0-14,11-25.4,24.5-25.4
			C541.3,48.9,552.3,60.3,552.3,74.3z"/>
		<path id="W_1_" class="st0" d="M414.2,16.6v77c0,6.8-6,12.3-13,11.5c-5.9-0.7-10.2-6-10.2-12V16.6h-18.7h-18.7v76.5
			c0,5.9-4.3,11.3-10.2,12c-7,0.8-13-4.6-13-11.5v-77h-37.4v71.4c0,26.5,20.6,49,47.1,50c12.1,0.4,26.6-7.5,32.1-16.5
			c5.5,9,20,16.9,32.1,16.5c26.5-1,47.1-23.5,47.1-50V16.6H414.2z"/>
		<path id="U_1_" class="st0" d="M280.4,16.6v71.3c0,26.7-21,49.4-47.7,50c-27.6,0.7-50.3-21.5-50.3-48.9V16.6h37.4v76.5
			c0,5.9,4.3,11.3,10.2,12c7,0.8,13-4.6,13-11.5v-77H280.4z"/>
		<path id="D_5_" class="st0" d="M112.8,14.8H68.9v119h43.9c16.4,0,31.3-6.7,42.1-17.4c10.8-10.8,17.4-25.6,17.4-42.1
			C172.3,41.4,145.7,14.8,112.8,14.8z M133.9,75c0,15.2-12.3,27.5-27.5,27.5V45.4c7.6,0,14.5,3.1,19.5,8.1c5,5,8.1,11.9,8.1,19.5V75
			z"/>
		<g id="_x3B__5_">
			<path class="st0" d="M48.6,112.6c0,27.7-11.1,45.1-34.7,59.9L0,154.4c12.9-8.2,21.8-15.4,21.8-25.6c-0.9,0-0.9,0-2.5-0.2
				c-7.9-1.1-16.1-9.1-16.1-20.4c0-12,9.3-22,22.2-22C38.8,86.1,48.6,96.8,48.6,112.6z"/>
			<circle class="st0" cx="25.9" cy="37.5" r="22.7"/>
		</g>
	</g>
</g>
</svg>