<svg version="1.1" id="Capa_1" xmlns="http://www.w3.org/2000/svg" xmlns:xlink="http://www.w3.org/1999/xlink" x="0px" y="0px"
	 viewBox="0 0 1080 1080" style="enable-background:new 0 0 1080 1080;" xml:space="preserve">
<style type="text/css">
	.st0{fill:#2E1941;}
	.st1{fill:#33FFBB;}
</style>
<g>
	<circle class="st0" cx="540" cy="540" r="540"/>
	<g>
		<path id="D_4_" class="st1" d="M632.4,338.4H496.5V707h135.8c50.9,0,96.9-20.6,130.3-54c33.4-33.3,54-79.4,54-130.3
			C816.6,420.9,734.1,338.4,632.4,338.4z M697.6,524.8c0,47.1-38.2,85.3-85.3,85.3V433.2c23.5,0,44.8,9.5,60.3,25
			c15.4,15.4,25,36.7,25,60.3V524.8z"/>
		<g id="_x3B__4_">
			<path class="st1" d="M433.4,641.5c0,85.7-34.4,139.8-107.5,185.5l-42.9-56.2c40-25.3,67.4-47.8,67.4-79.4c-2.8,0-2.8,0-7.7-0.7
				c-24.6-3.5-49.9-28.1-49.9-63.2c0-37.2,28.8-68.1,68.8-68.1C403.2,559.3,433.4,592.3,433.4,641.5z"/>
			<circle class="st1" cx="363.1" cy="408.7" r="70.3"/>
		</g>
	</g>
</g>
</svg>